<?xml version="1.0" encoding="UTF-8" standalone="no"?>
<!-- Created with Inkscape (http://www.inkscape.org/) -->

<svg
   xmlns:dc="http://purl.org/dc/elements/1.1/"
   xmlns:cc="http://creativecommons.org/ns#"
   xmlns:rdf="http://www.w3.org/1999/02/22-rdf-syntax-ns#"
   xmlns:svg="http://www.w3.org/2000/svg"
   xmlns="http://www.w3.org/2000/svg"
   xmlns:sodipodi="http://sodipodi.sourceforge.net/DTD/sodipodi-0.dtd"
   xmlns:inkscape="http://www.inkscape.org/namespaces/inkscape"
   width="48"
   height="48"
   viewBox="0 0 12.7 12.7"
   version="1.1"
   id="svg8"
   inkscape:version="0.92.2 (5c3e80d, 2017-08-06)"
   sodipodi:docname="fileview.svg">
  <defs
     id="defs2" />
  <sodipodi:namedview
     id="base"
     pagecolor="#ffffff"
     bordercolor="#666666"
     borderopacity="1.0"
     inkscape:pageopacity="0.0"
     inkscape:pageshadow="2"
     inkscape:zoom="7.9195959"
     inkscape:cx="20.09144"
     inkscape:cy="30.060542"
     inkscape:document-units="mm"
     inkscape:current-layer="layer1"
     showgrid="false"
     inkscape:window-width="2560"
     inkscape:window-height="1393"
     inkscape:window-x="1680"
     inkscape:window-y="0"
     inkscape:window-maximized="1"
     units="px" />
  <metadata
     id="metadata5">
    <rdf:RDF>
      <cc:Work
         rdf:about="">
        <dc:format>image/svg+xml</dc:format>
        <dc:type
           rdf:resource="http://purl.org/dc/dcmitype/StillImage" />
        <dc:title></dc:title>
      </cc:Work>
    </rdf:RDF>
  </metadata>
  <g
     inkscape:label="Layer 1"
     inkscape:groupmode="layer"
     id="layer1"
     transform="translate(0,-284.30001)">
    <path
       style="fill:#b3b3b3;fill-rule:evenodd;stroke:#000000;stroke-width:0.09946832;stroke-linecap:butt;stroke-linejoin:miter;stroke-miterlimit:4;stroke-dasharray:none;stroke-opacity:1"
       d="m 1.8976406,289.47914 v -2.95132 c -0.00629,-0.13331 -0.011815,-0.13651 0.1056924,-0.13651 h 3.7520338 l 0.5813049,0.63192 h 4.3399393 c 0.134216,-0.0112 0.125513,-5.3e-4 0.125513,0.13651 v 2.3194 z"
       id="path3704"
       inkscape:connector-curvature="0"
       sodipodi:nodetypes="ccccccccc" />
    <path
       id="path3708"
       style="fill:#808080;fill-rule:evenodd;stroke:#000000;stroke-width:0.1018812;stroke-linecap:butt;stroke-linejoin:miter;stroke-miterlimit:4;stroke-dasharray:none;stroke-opacity:1"
       d="m 0.84947788,287.74419 c -0.19404004,0 -0.33779765,0.15615 -0.30844233,0.31509 0.0315422,0.17062 1.35684675,6.43489 1.35684675,6.43489 h 4.4521209 4.4521208 c 0,0 1.325321,-6.26427 1.356841,-6.43489 0.02935,-0.15886 -0.114401,-0.31509 -0.308442,-0.31509 H 6.3500032 Z"
       inkscape:connector-curvature="0"
       sodipodi:nodetypes="ssccccscs" />
    <path
       sodipodi:nodetypes="ssccccscs"
       inkscape:connector-curvature="0"
       d="m 1.7432355,288.77057 c -0.1628497,0 -0.2834995,0.13104 -0.2588628,0.26443 0.026472,0.1432 1.1387449,5.40054 1.1387449,5.40054 h 3.7364791 3.7364793 c 0,0 1.112286,-5.25734 1.13874,-5.40054 0.02463,-0.13332 -0.09601,-0.26443 -0.258862,-0.26443 H 6.3595967 Z"
       style="fill:#b3b3b3;fill-rule:evenodd;stroke:none;stroke-width:0.08550464;stroke-linecap:butt;stroke-linejoin:miter;stroke-miterlimit:4;stroke-dasharray:none;stroke-opacity:1"
       id="path4545" />
    <rect
       style="fill:#b3b3b3;fill-opacity:1;stroke:#000000;stroke-width:0.99208945;stroke-linejoin:miter;stroke-miterlimit:4;stroke-dasharray:none;stroke-opacity:1"
       id="rect4566"
       width="7.2413383"
       height="4.199492"
       x="2.7300096"
       y="289.4483"
       rx="2.099746"
       ry="2.099746" />
    <path
       style="fill:#000000;fill-opacity:1;stroke:none;stroke-width:2.11662984;stroke-linejoin:miter;stroke-miterlimit:4;stroke-dasharray:none;stroke-opacity:1"
       id="path4568"
       sodipodi:type="arc"
       sodipodi:cx="6.3678966"
       sodipodi:cy="291.5661"
       sodipodi:rx="1.3342564"
       sodipodi:ry="1.3342564"
       sodipodi:start="2.0049819"
       sodipodi:end="2.0046503"
       sodipodi:open="true"
       d="m 5.8066127,292.77656 a 1.3342564,1.3342564 0 0 1 -0.6492174,-1.77164 1.3342564,1.3342564 0 0 1 1.7715844,-0.64937 1.3342564,1.3342564 0 0 1 0.6495111,1.77153 1.3342564,1.3342564 0 0 1 -1.7714767,0.64966" />
    <path
       d="m 5.6613322,291.11552 a 0.24335493,0.24335493 0 0 1 -0.1184107,-0.32313 0.24335493,0.24335493 0 0 1 0.3231192,-0.11844 0.24335493,0.24335493 0 0 1 0.1184643,0.32311 0.24335493,0.24335493 0 0 1 -0.3230995,0.11849"
       sodipodi:open="true"
       sodipodi:end="2.0046503"
       sodipodi:start="2.0049819"
       sodipodi:ry="0.24335493"
       sodipodi:rx="0.24335493"
       sodipodi:cy="290.89474"
       sodipodi:cx="5.7637048"
       sodipodi:type="arc"
       id="path4570"
       style="fill:#ffffff;fill-opacity:1;stroke:none;stroke-width:0.38605192;stroke-linejoin:miter;stroke-miterlimit:4;stroke-dasharray:none;stroke-opacity:1" />
  </g>
</svg>
